<svg  xmlns="http://www.w3.org/2000/svg" xml:space="preserve" height="54" viewBox="0 0 53.75 53.75" width="54" version="1.1"  ><g transform="matrix(1.2 0 0 -1.2 0 54)"><g transform="scale(.1)"><path d="m4.3e2 2.2e2c0-1.2e2-1e2-2.2e2-2.1e2-2.2e2-1.2e2 0-2.2e2 96-2.2e2 2.2e2 0 1.1e2 96 2.1e2 2.2e2 2.1e2 1.1e2 0 2.1e2-1e2 2.1e2-2.1e2" fill="#436290"/><path d="m1.3e2 2.6e2c6.9-17 16-33 27-48 1.5-1.9 3.5-3.6 5.5-5 3-2 5.8-1.3 7 2.1 1.3 3.6 2.5 11 2.5 15 .19 9.8-.031 16-.56 26-.34 6.3-2.6 12-12 13-2.8.51-3.1 2.9-1.3 5.2 3.8 4.9 9.1 5.6 15 5.9 9.3.5 19 .09 28 0 3.8-.035 7.6-.34 11-1.2 4.9-1.1 7.5-4.5 8.3-9.2.42-2.5.63-5 .57-7.5-.24-11-.75-21-.88-32-.05-4.2.25-8.5 1.1-13 1.3-5.7 5.1-7.1 9.1-3 5 5.2 9.5 11 14 17 7.6 11 13 23 18 35 2.5 6.3 4.4 7.7 11 7.7 13 .027 26 .039 38 0 2.3-.012 4.6-.23 6.8-.91 3.5-1.1 4.9-4 4-7.6-1.9-8.4-6.5-16-11-23l-24-33c-1-1.4-1.9-2.9-2.8-4.4-3-5.4-2.8-8.5 1.6-13 7-7.2 14-14 21-21 4.9-5.4 9.4-11 13-17 4.9-7.8 1.9-15-7.3-16-5.8-.82-34-.008-35 0-7.6.031-14 2.7-20 7.8-6 5.7-11 12-17 18-1.7 1.8-3.6 3.5-5.5 5-4.7 3.6-9.3 2.8-11-2.7-1.9-4.7-3.5-17-3.6-18-.39-5.5-3.9-9.1-10-9.4-18-.97-35 1-51 9.7-14 7.3-25 18-34 30-15 19-27 40-38 62-.55 1.1-12 24-12 26-.98 3.7-.066 7.2 3.1 8.4 1.9.76 38 0 39-.031 5.8-.31 9.7-2.8 12-8.8" fill="#fff"/></g></g></svg>
